PathFileType	4	(X/Y/Z)	/Volumes/GoogleDrive/My Drive/Research/Stanford/Projects/Digital Athlete Project/Sprinting/Sprint Simulation/sprinter/subjects/JA1/experimental_data/TRC/run0900cms.trc
DataRate	CameraRate	NumFrames	NumMarkers	Units	OrigDataRate	OrigDataStartFrame	OrigNumFrames
250.000000	250.000000	5	53	mm	250.000000	1	323
Frame#	Time	C7			RSH			LSH			MAN			T7			LARM			LELB			LFOREARM			LWR			RARM			RELB			RFOREARM			RWR			RASI			LASI			SACR			P1			P2			P3			LTHLP			LTHLD			LTHAP			LTHAD			LLEPI			LPAT			LTIAP			LTIAD			LTILAT			LLMAL			LHEEL			LMFS			LMFL			LP1MT			LTOE			LP5MT			RTHLP			RTHLD			RTHAP			RTHAD			RLEPI			RPAT			RTIAP			RTIAD			RTILAT			RLMAL			RHEEL			RMFS			RMFL			RP1MT			RTOE			RP5MT			x52			x53			
		X1	Y1	Z1	X2	Y2	Z2	X3	Y3	Z3	X4	Y4	Z4	X5	Y5	Z5	X6	Y6	Z6	X7	Y7	Z7	X8	Y8	Z8	X9	Y9	Z9	X10	Y10	Z10	X11	Y11	Z11	X12	Y12	Z12	X13	Y13	Z13	X14	Y14	Z14	X15	Y15	Z15	X16	Y16	Z16	X17	Y17	Z17	X18	Y18	Z18	X19	Y19	Z19	X20	Y20	Z20	X21	Y21	Z21	X22	Y22	Z22	X23	Y23	Z23	X24	Y24	Z24	X25	Y25	Z25	X26	Y26	Z26	X27	Y27	Z27	X28	Y28	Z28	X29	Y29	Z29	X30	Y30	Z30	X31	Y31	Z31	X32	Y32	Z32	X33	Y33	Z33	X34	Y34	Z34	X35	Y35	Z35	X36	Y36	Z36	X37	Y37	Z37	X38	Y38	Z38	X39	Y39	Z39	X40	Y40	Z40	X41	Y41	Z41	X42	Y42	Z42	X43	Y43	Z43	X44	Y44	Z44	X45	Y45	Z45	X46	Y46	Z46	X47	Y47	Z47	X48	Y48	Z48	X49	Y49	Z49	X50	Y50	Z50	X51	Y51	Z51	X52	Y52	Z52	X53	Y53	Z53	
1	0.004000	-5934.799805	1492.694214	160.761810	-5860.034668	1483.421387	305.934235	-5885.840820	1477.818359	-16.955643	-5803.294434	1386.016602	134.791016	-6014.675781	1302.776123	188.713531	-6034.783203	1417.363892	-114.665733	-6184.146484	1399.989258	-147.496246	-6256.018555	1270.845825	-145.913757	-6354.012695	1177.946533	-138.461578	-5750.691406	1334.538696	397.368073	-5666.421387	1228.613892	437.783112	-5563.044434	1306.748901	367.842529	-5474.941406	1369.427734	300.806671	-5857.739746	984.099915	277.370789	-5848.614746	1007.161926	65.377617	-6030.339844	1073.191895	178.172821	-6045.432617	1045.862549	124.133728	-6049.658203	1049.138916	230.176315	-6085.406738	998.542847	174.235703	-5740.190918	853.830383	-6.082039	-5639.667480	826.906738	13.655284	-5707.257812	968.802917	81.946495	-5599.958984	928.228760	89.992882	-5549.460938	786.024902	52.472588	-5473.285156	831.851196	117.505440	-5587.846680	640.388123	134.598694	-5669.020508	528.083618	141.473190	-5673.597168	610.518494	67.741028	-5776.564453	420.383118	97.534027	-5857.359375	418.855804	149.310364	-5691.259277	360.382660	138.373627	-5736.758789	357.038147	76.971046	-5669.744141	270.094391	149.569794	-5637.773926	280.231720	111.438744	-5710.144531	293.541656	33.708778	-6098.212891	778.764709	355.351898	-6159.395996	684.711609	338.933411	-5997.886230	687.628296	297.031525	-6066.951660	613.312317	286.192017	-6262.296875	576.522827	307.716309	-6177.851074	519.203979	277.986877	-6375.702148	404.572906	234.483414	-6490.170410	320.305634	207.888290	-6447.313965	441.147705	291.928650	-6609.503906	263.542328	256.854523	-6652.881836	312.232117	202.339218	-6567.341309	158.973099	205.624634	-6623.220703	179.141525	253.288208	-6587.336914	97.552521	149.660416	-6566.086426	83.600792	187.313110	-6637.275879	95.423126	267.859772	-5425.670898	1404.479980	263.317841	-6403.817871	1130.730469	-134.673996
2	0.008000	-5897.757812	1490.478516	161.615082	-5824.798340	1484.190186	303.354279	-5849.743652	1478.857788	-16.451252	-5766.619141	1385.158081	133.426239	-5976.153320	1300.983887	190.849899	-6001.804199	1426.619385	-109.936058	-6150.345703	1412.490845	-140.056396	-6223.966797	1285.670898	-144.015411	-6322.680176	1193.041016	-137.812759	-5707.799316	1341.495605	394.526398	-5621.599609	1237.645264	436.373718	-5525.318359	1322.388306	366.186096	-5442.910645	1391.306396	298.251862	-5817.962891	982.689209	278.027466	-5810.910645	1005.500427	66.271454	-5990.533203	1072.970703	181.170090	-6006.851074	1045.457520	127.623398	-6010.575684	1050.324341	233.593063	-6048.441895	1000.574890	178.295486	-5710.325684	853.284363	-6.007186	-5599.787598	829.651672	15.085772	-5669.515625	969.654907	84.008034	-5562.137207	931.487305	90.100861	-5508.837402	790.106323	53.308598	-5434.455078	838.511597	118.574562	-5535.462402	641.203613	133.623566	-5608.728516	522.786926	140.039948	-5616.764648	604.805664	67.270027	-5710.204102	407.068817	94.840286	-5788.561035	399.884491	146.626694	-5619.365234	352.617310	137.967468	-5664.637695	346.392700	75.178467	-5591.002441	264.638489	150.617935	-5559.050293	277.597168	114.214745	-5644.650391	288.685303	30.429462	-6063.759766	783.759583	355.506012	-6128.124512	692.543335	336.234100	-5967.351074	690.118103	294.393402	-6038.711914	619.479248	280.827454	-6234.575684	589.145691	305.273438	-6151.712891	525.409180	273.555420	-6351.441406	416.450897	235.270554	-6458.536621	331.330078	215.561966	-6421.317871	455.675262	292.507324	-6582.514648	278.841003	261.883362	-6624.346191	332.505371	209.946106	-6553.125000	173.543777	210.802109	-6606.991211	196.385315	258.903290	-6579.773926	110.978333	156.350281	-6540.682129	96.325119	209.891541	-6633.005859	111.848579	271.080536	-5396.825195	1429.847778	260.260651	-6372.851562	1145.961914	-134.660263
3	0.012000	-5860.658691	1488.892090	162.059769	-5789.277832	1484.779297	301.258423	-5813.277832	1479.395020	-15.871731	-5729.993164	1384.376465	131.646866	-5938.149414	1299.632202	192.522842	-5971.540039	1436.276123	-105.163376	-6115.748535	1424.832153	-132.932419	-6190.868164	1298.852539	-141.801224	-6300.761230	1210.079346	-139.316666	-5666.252930	1347.199219	392.121704	-5578.244141	1246.007812	435.359100	-5488.709473	1336.452148	364.537720	-5411.768555	1410.739990	295.969055	-5779.941895	981.846375	279.277313	-5773.600098	1005.232544	67.304298	-5951.483887	1072.351807	182.997864	-5969.228027	1044.679077	130.013504	-5972.172852	1051.065918	235.843735	-6012.003906	1002.168213	181.406265	-5651.472168	856.562622	-16.651999	-5555.801758	831.879089	13.722149	-5631.435547	970.173035	85.783211	-5524.371582	933.002136	90.649223	-5468.725586	792.361694	53.810822	-5396.639648	843.024841	119.788437	-5484.568848	641.055603	132.839294	-5549.054199	517.536072	138.615738	-5564.651855	598.476746	65.255974	-5650.270508	394.066559	90.521797	-5719.755859	381.254333	144.162659	-5547.977051	345.797852	137.338379	-5591.302246	335.759857	74.927292	-5513.292480	261.273773	152.119843	-5511.062500	268.823730	98.672226	-5552.696289	278.116272	34.485386	-6028.909180	788.227844	355.721649	-6095.816406	699.868286	333.606964	-5935.807129	692.647583	291.493256	-6009.198730	625.801636	275.312683	-6203.671875	598.036316	304.042603	-6131.825195	529.037292	261.548401	-6325.926270	428.568817	235.367569	-6443.510742	348.620483	213.674072	-6392.109863	468.656403	294.032227	-6559.332031	298.495728	266.107269	-6596.487305	354.711670	214.193497	-6534.743652	192.021027	218.152878	-6588.855469	217.591064	264.187561	-6570.094727	123.719231	164.216156	-6559.665039	101.870461	208.969452	-6626.272949	132.031754	275.530304	-5368.740234	1452.284302	257.623047	-6356.614746	1164.960327	-138.053879
4	0.016000	-5823.383789	1488.068115	161.987549	-5753.945801	1485.634766	299.946869	-5776.101074	1479.532593	-15.763506	-5694.064941	1382.280762	132.239136	-5900.360840	1298.817261	194.068283	-5935.610352	1442.321899	-100.091957	-6080.055176	1435.435791	-125.443085	-6162.315918	1313.006592	-139.663574	-6258.788086	1218.521851	-137.038895	-5627.006836	1351.571899	390.483124	-5536.218262	1253.135132	434.571228	-5452.915527	1348.347046	363.109161	-5382.024414	1427.769409	294.154602	-5742.375488	981.444763	280.725891	-5736.734863	1004.867371	68.644150	-5913.174316	1071.681641	183.700409	-5931.994141	1043.788208	131.154678	-5934.211914	1051.504150	236.926590	-5975.521484	1002.814758	183.362457	-5629.540527	853.322937	-5.783805	-5518.565918	831.960693	16.344688	-5594.038086	969.692139	87.446686	-5487.179688	933.270142	91.852188	-5429.818848	792.578125	53.956886	-5359.800781	845.145569	120.476219	-5435.860352	639.522095	131.948166	-5491.087891	511.770569	137.503387	-5511.430664	590.799377	63.141792	-5582.262695	379.958344	88.940941	-5651.383789	362.486694	142.088806	-5478.296875	339.189758	136.160065	-5516.511230	326.840881	77.192711	-5435.753906	259.250336	153.086044	-5401.063477	276.854309	119.672218	-5476.042480	269.854462	35.152756	-5993.141113	792.176819	355.756378	-6061.795898	705.809692	332.331421	-5902.388672	694.854065	289.455750	-5976.663574	630.845337	270.380463	-6169.412109	603.069153	303.484680	-6093.951660	535.772705	259.647186	-6300.316406	440.604095	234.210892	-6412.305664	363.027283	218.510178	-6361.324707	479.909546	295.923615	-6537.842285	320.357788	268.204132	-6574.801758	375.970673	213.974396	-6499.423340	215.863083	232.212524	-6570.179688	241.148666	268.420288	-6561.966797	138.222672	171.228500	-6529.104980	126.876335	228.386124	-6616.130371	154.753860	281.538727	-5342.379395	1472.185181	255.592789	-6307.819824	1170.499878	-135.704910
5	0.020000	-5785.841309	1488.106934	161.556198	-5717.489746	1486.586914	299.039825	-5738.425781	1479.455322	-15.869909	-5656.375000	1381.337646	131.086288	-5862.746094	1299.344727	195.410980	-5898.795410	1446.230469	-95.504089	-6043.548340	1444.113647	-118.078979	-6122.157227	1319.821899	-136.870148	-6231.580078	1229.745605	-138.582108	-5589.262207	1354.917847	389.581177	-5495.678711	1258.784058	434.205994	-5417.777832	1358.132080	362.456024	-5352.820312	1441.836060	293.140564	-5705.015625	982.410339	282.273651	-5699.982910	1005.399536	69.275085	-5875.467773	1071.280273	183.499069	-5895.161621	1043.076782	131.378189	-5896.772949	1051.929565	236.959915	-5938.015137	1002.050720	184.330566	-5579.662109	854.019104	-10.848184	-5474.460938	831.834839	15.118763	-5556.704590	967.581665	89.146179	-5450.127441	931.604736	94.212166	-5393.781738	790.791382	53.429832	-5325.776367	844.925415	119.569717	-5390.389160	635.222107	130.130951	-5434.486816	503.896790	135.752991	-5458.734863	581.388916	60.846897	-5514.302246	365.730743	87.523857	-5583.565918	343.497009	140.422760	-5406.010742	334.889374	135.326920	-5447.336914	315.680756	75.042725	-5360.445801	259.100159	154.226547	-5329.509766	276.051453	117.998047	-5399.986328	261.812836	36.270237	-5956.303223	795.602966	356.132660	-6025.132812	709.124573	333.105499	-5866.318848	696.518250	288.242188	-5941.800293	634.213623	265.994202	-6131.098633	604.832153	302.142853	-6058.125000	538.582703	255.417557	-6274.098633	451.818695	232.906662	-6383.129395	378.585022	220.880295	-6330.143066	490.398926	297.203400	-6517.943359	344.030609	268.259247	-6552.630371	399.153534	212.398788	-6485.004883	236.958847	234.062988	-6551.726074	266.577484	271.116760	-6549.734863	160.322495	177.096039	-6535.121094	143.890381	224.013763	-6599.624023	184.164444	289.145081	-5316.494141	1488.646240	254.376892	-6287.194336	1183.964233	-139.452209
